<mxfile host="app.diagrams.net" modified="2023-09-18T22:50:01.417Z" agent="Mozilla/5.0 (Windows NT 10.0; Win64; x64) AppleWebKit/537.36 (KHTML, like Gecko) Chrome/117.0.0.0 Safari/537.36 Edg/117.0.2045.31" etag="QELF3Spj1dNjscPTUbW2" version="21.7.5" type="github">
  <diagram name="Página-1" id="7lZH52VtYHdOlNdaaxMl">
    <mxGraphModel dx="1678" dy="884" grid="1" gridSize="10" guides="1" tooltips="1" connect="1" arrows="1" fold="1" page="1" pageScale="1" pageWidth="10000" pageHeight="10000" math="0" shadow="0">
      <root>
        <mxCell id="0" />
        <mxCell id="1" parent="0" />
        <mxCell id="78oOAkl6ML1StjrEmniX-30" value="" style="rounded=0;whiteSpace=wrap;html=1;direction=north;strokeWidth=2;fillColor=#b1ddf0;strokeColor=#10739e;" vertex="1" parent="1">
          <mxGeometry x="1222.23" y="490" width="35" height="100" as="geometry" />
        </mxCell>
        <mxCell id="78oOAkl6ML1StjrEmniX-38" value="R0.05/1W Ohms" style="text;html=1;align=center;verticalAlign=middle;resizable=0;points=[];autosize=1;strokeColor=none;fillColor=none;rotation=-90;" vertex="1" parent="1">
          <mxGeometry x="1184.7299999999998" y="523" width="110" height="30" as="geometry" />
        </mxCell>
        <mxCell id="78oOAkl6ML1StjrEmniX-1" value="CPU 2&lt;br&gt;ESP32" style="rounded=1;whiteSpace=wrap;html=1;fillColor=#dae8fc;strokeColor=#6c8ebf;strokeWidth=5;" vertex="1" parent="1">
          <mxGeometry x="340" y="680" width="120" height="60" as="geometry" />
        </mxCell>
        <mxCell id="78oOAkl6ML1StjrEmniX-43" value="" style="edgeStyle=orthogonalEdgeStyle;rounded=0;orthogonalLoop=1;jettySize=auto;html=1;" edge="1" parent="1" source="78oOAkl6ML1StjrEmniX-2" target="78oOAkl6ML1StjrEmniX-9">
          <mxGeometry relative="1" as="geometry" />
        </mxCell>
        <mxCell id="78oOAkl6ML1StjrEmniX-2" value="CPU 1&lt;br&gt;STM32F411" style="rounded=1;whiteSpace=wrap;html=1;fillColor=#dae8fc;strokeColor=#6c8ebf;strokeWidth=5;" vertex="1" parent="1">
          <mxGeometry x="700" y="680" width="120" height="60" as="geometry" />
        </mxCell>
        <mxCell id="78oOAkl6ML1StjrEmniX-45" value="" style="edgeStyle=orthogonalEdgeStyle;rounded=0;orthogonalLoop=1;jettySize=auto;html=1;" edge="1" parent="1" source="78oOAkl6ML1StjrEmniX-9" target="78oOAkl6ML1StjrEmniX-28">
          <mxGeometry relative="1" as="geometry" />
        </mxCell>
        <mxCell id="78oOAkl6ML1StjrEmniX-9" value="DAC - MCP4725" style="rounded=1;whiteSpace=wrap;html=1;fillColor=#bac8d3;strokeColor=#23445d;strokeWidth=2;" vertex="1" parent="1">
          <mxGeometry x="880" y="680" width="120" height="60" as="geometry" />
        </mxCell>
        <mxCell id="78oOAkl6ML1StjrEmniX-10" value="ADC - ADS1115" style="rounded=1;whiteSpace=wrap;html=1;fillColor=#b1ddf0;strokeColor=#10739e;strokeWidth=2;" vertex="1" parent="1">
          <mxGeometry x="880" y="560" width="120" height="60" as="geometry" />
        </mxCell>
        <mxCell id="78oOAkl6ML1StjrEmniX-11" value="Encoder" style="rounded=1;whiteSpace=wrap;html=1;fillColor=#ffe6cc;strokeColor=#d79b00;strokeWidth=2;" vertex="1" parent="1">
          <mxGeometry x="160" y="800" width="120" height="60" as="geometry" />
        </mxCell>
        <mxCell id="78oOAkl6ML1StjrEmniX-12" value="Teclado Matricial &lt;br&gt;3x3" style="rounded=1;whiteSpace=wrap;html=1;fillColor=#fff2cc;strokeColor=#d6b656;strokeWidth=2;" vertex="1" parent="1">
          <mxGeometry x="160" y="560" width="120" height="60" as="geometry" />
        </mxCell>
        <mxCell id="78oOAkl6ML1StjrEmniX-13" value="LCD TFT" style="rounded=1;whiteSpace=wrap;html=1;fillColor=#d5e8d4;strokeColor=#82b366;strokeWidth=2;" vertex="1" parent="1">
          <mxGeometry x="340" y="560" width="120" height="60" as="geometry" />
        </mxCell>
        <mxCell id="78oOAkl6ML1StjrEmniX-24" value="" style="edgeStyle=orthogonalEdgeStyle;rounded=0;orthogonalLoop=1;jettySize=auto;html=1;" edge="1" parent="1" source="78oOAkl6ML1StjrEmniX-14" target="78oOAkl6ML1StjrEmniX-1">
          <mxGeometry relative="1" as="geometry" />
        </mxCell>
        <mxCell id="78oOAkl6ML1StjrEmniX-14" value="Encoder SW" style="rounded=1;whiteSpace=wrap;html=1;fillColor=#fff2cc;strokeColor=#d6b656;strokeWidth=2;" vertex="1" parent="1">
          <mxGeometry x="340" y="800" width="120" height="60" as="geometry" />
        </mxCell>
        <mxCell id="78oOAkl6ML1StjrEmniX-15" value="ETHERNET&lt;br&gt;W5100" style="rounded=1;whiteSpace=wrap;html=1;fillColor=#d5e8d4;strokeColor=#82b366;strokeWidth=2;" vertex="1" parent="1">
          <mxGeometry x="520" y="560" width="120" height="60" as="geometry" />
        </mxCell>
        <mxCell id="78oOAkl6ML1StjrEmniX-17" value="Batería" style="rounded=1;whiteSpace=wrap;html=1;fillColor=#f8cecc;strokeColor=#b85450;strokeWidth=2;" vertex="1" parent="1">
          <mxGeometry x="520" y="800" width="120" height="60" as="geometry" />
        </mxCell>
        <mxCell id="78oOAkl6ML1StjrEmniX-18" value="Sensor Temperatura&lt;br&gt;LM35" style="rounded=1;whiteSpace=wrap;html=1;fillColor=#b1ddf0;strokeColor=#10739e;strokeWidth=2;" vertex="1" parent="1">
          <mxGeometry x="1060" y="800" width="120" height="60" as="geometry" />
        </mxCell>
        <mxCell id="78oOAkl6ML1StjrEmniX-19" value="Conexión&lt;br&gt;Modulo Extensión&lt;br&gt;500W" style="rounded=1;whiteSpace=wrap;html=1;fillColor=#e1d5e7;strokeColor=#9673a6;strokeWidth=2;" vertex="1" parent="1">
          <mxGeometry x="700" y="560" width="120" height="60" as="geometry" />
        </mxCell>
        <mxCell id="78oOAkl6ML1StjrEmniX-20" value="Trigger" style="rounded=1;whiteSpace=wrap;html=1;fillColor=#fff2cc;strokeColor=#d6b656;strokeWidth=2;" vertex="1" parent="1">
          <mxGeometry x="700" y="800" width="120" height="60" as="geometry" />
        </mxCell>
        <mxCell id="78oOAkl6ML1StjrEmniX-21" value="" style="endArrow=classic;html=1;rounded=0;entryX=0.5;entryY=1;entryDx=0;entryDy=0;" edge="1" parent="1" target="78oOAkl6ML1StjrEmniX-13">
          <mxGeometry width="50" height="50" relative="1" as="geometry">
            <mxPoint x="400" y="680" as="sourcePoint" />
            <mxPoint x="450" y="630" as="targetPoint" />
          </mxGeometry>
        </mxCell>
        <mxCell id="78oOAkl6ML1StjrEmniX-22" value="" style="endArrow=classic;html=1;rounded=0;exitX=0.5;exitY=0;exitDx=0;exitDy=0;" edge="1" parent="1" source="78oOAkl6ML1StjrEmniX-11">
          <mxGeometry width="50" height="50" relative="1" as="geometry">
            <mxPoint x="340" y="720" as="sourcePoint" />
            <mxPoint x="340" y="720" as="targetPoint" />
            <Array as="points">
              <mxPoint x="220" y="720" />
            </Array>
          </mxGeometry>
        </mxCell>
        <mxCell id="78oOAkl6ML1StjrEmniX-23" value="" style="endArrow=classic;html=1;rounded=0;exitX=0.5;exitY=1;exitDx=0;exitDy=0;" edge="1" parent="1" source="78oOAkl6ML1StjrEmniX-12">
          <mxGeometry width="50" height="50" relative="1" as="geometry">
            <mxPoint x="340" y="700" as="sourcePoint" />
            <mxPoint x="340" y="700" as="targetPoint" />
            <Array as="points">
              <mxPoint x="220" y="700" />
            </Array>
          </mxGeometry>
        </mxCell>
        <mxCell id="78oOAkl6ML1StjrEmniX-25" value="" style="endArrow=classic;startArrow=classic;html=1;rounded=0;entryX=0;entryY=0.5;entryDx=0;entryDy=0;" edge="1" parent="1" target="78oOAkl6ML1StjrEmniX-2">
          <mxGeometry width="50" height="50" relative="1" as="geometry">
            <mxPoint x="460" y="710" as="sourcePoint" />
            <mxPoint x="510" y="660" as="targetPoint" />
          </mxGeometry>
        </mxCell>
        <mxCell id="78oOAkl6ML1StjrEmniX-26" value="FAN" style="rounded=1;whiteSpace=wrap;html=1;strokeWidth=2;" vertex="1" parent="1">
          <mxGeometry x="1294.73" y="679.5" width="120" height="60" as="geometry" />
        </mxCell>
        <mxCell id="78oOAkl6ML1StjrEmniX-28" value="Lazo Control de Corriente" style="rounded=1;whiteSpace=wrap;html=1;strokeWidth=2;fillColor=#f5f5f5;strokeColor=#666666;fontColor=#333333;" vertex="1" parent="1">
          <mxGeometry x="1060" y="680" width="120" height="60" as="geometry" />
        </mxCell>
        <mxCell id="78oOAkl6ML1StjrEmniX-32" value="Transformador 220v/12v" style="rounded=1;whiteSpace=wrap;html=1;fillColor=#f8cecc;strokeColor=#b85450;strokeWidth=2;" vertex="1" parent="1">
          <mxGeometry x="430" y="340" width="120" height="60" as="geometry" />
        </mxCell>
        <mxCell id="78oOAkl6ML1StjrEmniX-33" value="Fuente de Alimentación +/- 12V" style="rounded=1;whiteSpace=wrap;html=1;fillColor=#f8cecc;strokeColor=#b85450;strokeWidth=2;" vertex="1" parent="1">
          <mxGeometry x="250" y="460" width="120" height="60" as="geometry" />
        </mxCell>
        <mxCell id="78oOAkl6ML1StjrEmniX-34" value="Fuente de Alimentación 5V" style="rounded=1;whiteSpace=wrap;html=1;fillColor=#f8cecc;strokeColor=#b85450;strokeWidth=2;" vertex="1" parent="1">
          <mxGeometry x="430" y="460" width="120" height="60" as="geometry" />
        </mxCell>
        <mxCell id="78oOAkl6ML1StjrEmniX-35" value="Fuente de Alimentación 3,3V" style="rounded=1;whiteSpace=wrap;html=1;fillColor=#f8cecc;strokeColor=#b85450;strokeWidth=2;" vertex="1" parent="1">
          <mxGeometry x="610" y="460" width="120" height="60" as="geometry" />
        </mxCell>
        <mxCell id="78oOAkl6ML1StjrEmniX-36" value="Detector Error" style="rounded=1;whiteSpace=wrap;html=1;fillColor=#fff2cc;strokeColor=#d6b656;strokeWidth=2;" vertex="1" parent="1">
          <mxGeometry x="880" y="800" width="120" height="60" as="geometry" />
        </mxCell>
        <mxCell id="78oOAkl6ML1StjrEmniX-37" value="Detector &lt;br&gt;Tensión Inv." style="rounded=1;whiteSpace=wrap;html=1;fillColor=#fff2cc;strokeColor=#d6b656;strokeWidth=2;" vertex="1" parent="1">
          <mxGeometry x="1060" y="558" width="120" height="60" as="geometry" />
        </mxCell>
        <mxCell id="78oOAkl6ML1StjrEmniX-39" value="" style="endArrow=classic;startArrow=classic;html=1;rounded=0;exitX=0;exitY=0.25;exitDx=0;exitDy=0;entryX=0.5;entryY=1;entryDx=0;entryDy=0;" edge="1" parent="1" source="78oOAkl6ML1StjrEmniX-2" target="78oOAkl6ML1StjrEmniX-15">
          <mxGeometry width="50" height="50" relative="1" as="geometry">
            <mxPoint x="630" y="680" as="sourcePoint" />
            <mxPoint x="680" y="630" as="targetPoint" />
            <Array as="points">
              <mxPoint x="580" y="695" />
            </Array>
          </mxGeometry>
        </mxCell>
        <mxCell id="78oOAkl6ML1StjrEmniX-40" value="" style="endArrow=classic;html=1;rounded=0;entryX=0;entryY=0.75;entryDx=0;entryDy=0;" edge="1" parent="1" target="78oOAkl6ML1StjrEmniX-2">
          <mxGeometry width="50" height="50" relative="1" as="geometry">
            <mxPoint x="580" y="800" as="sourcePoint" />
            <mxPoint x="630" y="750" as="targetPoint" />
            <Array as="points">
              <mxPoint x="580" y="725" />
            </Array>
          </mxGeometry>
        </mxCell>
        <mxCell id="78oOAkl6ML1StjrEmniX-41" value="" style="endArrow=classic;html=1;rounded=0;entryX=0.5;entryY=1;entryDx=0;entryDy=0;" edge="1" parent="1" target="78oOAkl6ML1StjrEmniX-2">
          <mxGeometry width="50" height="50" relative="1" as="geometry">
            <mxPoint x="760" y="800" as="sourcePoint" />
            <mxPoint x="810" y="750" as="targetPoint" />
          </mxGeometry>
        </mxCell>
        <mxCell id="78oOAkl6ML1StjrEmniX-42" value="" style="endArrow=classic;html=1;rounded=0;entryX=0.75;entryY=1;entryDx=0;entryDy=0;" edge="1" parent="1" target="78oOAkl6ML1StjrEmniX-2">
          <mxGeometry width="50" height="50" relative="1" as="geometry">
            <mxPoint x="940" y="800" as="sourcePoint" />
            <mxPoint x="990" y="750" as="targetPoint" />
            <Array as="points">
              <mxPoint x="940" y="780" />
              <mxPoint x="860" y="780" />
              <mxPoint x="790" y="780" />
            </Array>
          </mxGeometry>
        </mxCell>
        <mxCell id="78oOAkl6ML1StjrEmniX-44" value="" style="endArrow=classic;startArrow=classic;html=1;rounded=0;entryX=0.5;entryY=1;entryDx=0;entryDy=0;" edge="1" parent="1" target="78oOAkl6ML1StjrEmniX-19">
          <mxGeometry width="50" height="50" relative="1" as="geometry">
            <mxPoint x="760" y="680" as="sourcePoint" />
            <mxPoint x="810" y="630" as="targetPoint" />
          </mxGeometry>
        </mxCell>
        <mxCell id="78oOAkl6ML1StjrEmniX-47" value="" style="endArrow=classic;startArrow=classic;html=1;rounded=0;entryX=0.5;entryY=1;entryDx=0;entryDy=0;" edge="1" parent="1" target="78oOAkl6ML1StjrEmniX-10">
          <mxGeometry width="50" height="50" relative="1" as="geometry">
            <mxPoint x="790" y="680" as="sourcePoint" />
            <mxPoint x="940" y="650" as="targetPoint" />
            <Array as="points">
              <mxPoint x="790" y="640" />
              <mxPoint x="860" y="640" />
              <mxPoint x="940" y="640" />
            </Array>
          </mxGeometry>
        </mxCell>
        <mxCell id="78oOAkl6ML1StjrEmniX-48" value="" style="endArrow=classic;html=1;rounded=0;entryX=1;entryY=0.25;entryDx=0;entryDy=0;exitX=0.25;exitY=1;exitDx=0;exitDy=0;" edge="1" parent="1" source="78oOAkl6ML1StjrEmniX-37" target="78oOAkl6ML1StjrEmniX-2">
          <mxGeometry width="50" height="50" relative="1" as="geometry">
            <mxPoint x="800" y="800" as="sourcePoint" />
            <mxPoint x="850" y="750" as="targetPoint" />
            <Array as="points">
              <mxPoint x="1090" y="660" />
              <mxPoint x="1020" y="660" />
              <mxPoint x="850" y="660" />
              <mxPoint x="850" y="695" />
            </Array>
          </mxGeometry>
        </mxCell>
        <mxCell id="78oOAkl6ML1StjrEmniX-49" value="" style="endArrow=classic;html=1;rounded=0;entryX=1;entryY=0.75;entryDx=0;entryDy=0;" edge="1" parent="1" target="78oOAkl6ML1StjrEmniX-2">
          <mxGeometry width="50" height="50" relative="1" as="geometry">
            <mxPoint x="1120" y="800" as="sourcePoint" />
            <mxPoint x="1170" y="750" as="targetPoint" />
            <Array as="points">
              <mxPoint x="1120" y="760" />
              <mxPoint x="850" y="760" />
              <mxPoint x="850" y="725" />
            </Array>
          </mxGeometry>
        </mxCell>
        <mxCell id="78oOAkl6ML1StjrEmniX-50" value="&lt;font style=&quot;&quot;&gt;&lt;span style=&quot;font-size: 25px;&quot;&gt;V&lt;/span&gt;&lt;font style=&quot;font-size: 14px;&quot;&gt;ENT&lt;/font&gt;&lt;/font&gt;" style="ellipse;whiteSpace=wrap;html=1;aspect=fixed;" vertex="1" parent="1">
          <mxGeometry x="1212.23" y="360" width="55" height="55" as="geometry" />
        </mxCell>
        <mxCell id="78oOAkl6ML1StjrEmniX-52" value="" style="endArrow=none;html=1;rounded=0;exitX=1;exitY=0.5;exitDx=0;exitDy=0;entryX=0.5;entryY=1;entryDx=0;entryDy=0;strokeWidth=3;" edge="1" parent="1" source="78oOAkl6ML1StjrEmniX-30" target="78oOAkl6ML1StjrEmniX-50">
          <mxGeometry width="50" height="50" relative="1" as="geometry">
            <mxPoint x="1291" y="540" as="sourcePoint" />
            <mxPoint x="1341" y="490" as="targetPoint" />
            <Array as="points">
              <mxPoint x="1240" y="470" />
            </Array>
          </mxGeometry>
        </mxCell>
        <mxCell id="78oOAkl6ML1StjrEmniX-55" value="Acondicionador de señal" style="rounded=1;whiteSpace=wrap;html=1;fillColor=#b1ddf0;strokeColor=#10739e;strokeWidth=2;" vertex="1" parent="1">
          <mxGeometry x="1060" y="420" width="120" height="60" as="geometry" />
        </mxCell>
        <mxCell id="78oOAkl6ML1StjrEmniX-56" value="" style="endArrow=classic;html=1;rounded=0;entryX=1;entryY=0.5;entryDx=0;entryDy=0;" edge="1" parent="1" target="78oOAkl6ML1StjrEmniX-55">
          <mxGeometry width="50" height="50" relative="1" as="geometry">
            <mxPoint x="1240" y="450" as="sourcePoint" />
            <mxPoint x="1290" y="420" as="targetPoint" />
          </mxGeometry>
        </mxCell>
        <mxCell id="78oOAkl6ML1StjrEmniX-57" value="" style="endArrow=classic;html=1;rounded=0;entryX=0.5;entryY=0;entryDx=0;entryDy=0;exitX=0;exitY=0.5;exitDx=0;exitDy=0;" edge="1" parent="1" source="78oOAkl6ML1StjrEmniX-55" target="78oOAkl6ML1StjrEmniX-10">
          <mxGeometry width="50" height="50" relative="1" as="geometry">
            <mxPoint x="1060" y="470" as="sourcePoint" />
            <mxPoint x="1110" y="420" as="targetPoint" />
            <Array as="points">
              <mxPoint x="940" y="450" />
            </Array>
          </mxGeometry>
        </mxCell>
        <mxCell id="78oOAkl6ML1StjrEmniX-70" value="" style="endArrow=none;html=1;rounded=0;exitX=0.5;exitY=0;exitDx=0;exitDy=0;strokeWidth=3;sourcePerimeterSpacing=0;strokeColor=default;entryX=0.021;entryY=0.456;entryDx=0;entryDy=0;entryPerimeter=0;" edge="1" parent="1" source="78oOAkl6ML1StjrEmniX-67" target="78oOAkl6ML1StjrEmniX-38">
          <mxGeometry width="50" height="50" relative="1" as="geometry">
            <mxPoint x="1296.3611666666663" y="663.63" as="sourcePoint" />
            <mxPoint x="1240" y="610" as="targetPoint" />
          </mxGeometry>
        </mxCell>
        <mxCell id="78oOAkl6ML1StjrEmniX-71" value="" style="group" vertex="1" connectable="0" parent="1">
          <mxGeometry x="1214" y="660" width="47.77" height="99" as="geometry" />
        </mxCell>
        <mxCell id="78oOAkl6ML1StjrEmniX-58" value="" style="endArrow=classic;html=1;rounded=0;strokeWidth=2;" edge="1" parent="78oOAkl6ML1StjrEmniX-71">
          <mxGeometry width="50" height="50" relative="1" as="geometry">
            <mxPoint x="24.681166666666666" y="81.9" as="sourcePoint" />
            <mxPoint x="8.757833333333334" y="47.7" as="targetPoint" />
            <Array as="points">
              <mxPoint x="24.681166666666666" y="47.7" />
            </Array>
          </mxGeometry>
        </mxCell>
        <mxCell id="78oOAkl6ML1StjrEmniX-59" value="" style="endArrow=none;html=1;rounded=0;strokeWidth=4;" edge="1" parent="78oOAkl6ML1StjrEmniX-71">
          <mxGeometry width="50" height="50" relative="1" as="geometry">
            <mxPoint x="7.961666666666667" y="27.900000000000002" as="sourcePoint" />
            <mxPoint x="7.961666666666667" y="0.9" as="targetPoint" />
          </mxGeometry>
        </mxCell>
        <mxCell id="78oOAkl6ML1StjrEmniX-60" value="" style="endArrow=none;html=1;rounded=0;strokeWidth=4;" edge="1" parent="78oOAkl6ML1StjrEmniX-71">
          <mxGeometry width="50" height="50" relative="1" as="geometry">
            <mxPoint x="7.961666666666667" y="63.9" as="sourcePoint" />
            <mxPoint x="7.961666666666667" y="36.9" as="targetPoint" />
            <Array as="points">
              <mxPoint x="7.961666666666667" y="45.9" />
            </Array>
          </mxGeometry>
        </mxCell>
        <mxCell id="78oOAkl6ML1StjrEmniX-61" value="" style="endArrow=none;html=1;rounded=0;strokeWidth=4;" edge="1" parent="78oOAkl6ML1StjrEmniX-71">
          <mxGeometry width="50" height="50" relative="1" as="geometry">
            <mxPoint x="7.961666666666667" y="98.10000000000001" as="sourcePoint" />
            <mxPoint x="7.961666666666667" y="71.10000000000001" as="targetPoint" />
            <Array as="points">
              <mxPoint x="7.961666666666667" y="80.10000000000001" />
            </Array>
          </mxGeometry>
        </mxCell>
        <mxCell id="78oOAkl6ML1StjrEmniX-62" value="" style="endArrow=none;html=1;rounded=0;strokeWidth=4;" edge="1" parent="78oOAkl6ML1StjrEmniX-71">
          <mxGeometry width="50" height="50" relative="1" as="geometry">
            <mxPoint y="99" as="sourcePoint" />
            <mxPoint as="targetPoint" />
          </mxGeometry>
        </mxCell>
        <mxCell id="78oOAkl6ML1StjrEmniX-63" value="" style="endArrow=classic;html=1;rounded=0;strokeWidth=4;" edge="1" parent="78oOAkl6ML1StjrEmniX-71">
          <mxGeometry width="50" height="50" relative="1" as="geometry">
            <mxPoint x="7.961666666666667" y="82.8" as="sourcePoint" />
            <mxPoint x="39.80833333333334" y="37.800000000000004" as="targetPoint" />
            <Array as="points">
              <mxPoint x="39.80833333333334" y="82.8" />
            </Array>
          </mxGeometry>
        </mxCell>
        <mxCell id="78oOAkl6ML1StjrEmniX-64" value="" style="endArrow=none;html=1;rounded=0;strokeWidth=3;" edge="1" parent="78oOAkl6ML1StjrEmniX-71">
          <mxGeometry width="50" height="50" relative="1" as="geometry">
            <mxPoint x="31.846666666666668" y="37.800000000000004" as="sourcePoint" />
            <mxPoint x="47.77" y="37.800000000000004" as="targetPoint" />
          </mxGeometry>
        </mxCell>
        <mxCell id="78oOAkl6ML1StjrEmniX-65" value="" style="endArrow=none;html=1;rounded=0;strokeWidth=4;" edge="1" parent="78oOAkl6ML1StjrEmniX-71">
          <mxGeometry width="50" height="50" relative="1" as="geometry">
            <mxPoint x="39.80833333333334" y="37.800000000000004" as="sourcePoint" />
            <mxPoint x="7.961666666666667" y="10.8" as="targetPoint" />
            <Array as="points">
              <mxPoint x="39.80833333333334" y="10.8" />
            </Array>
          </mxGeometry>
        </mxCell>
        <mxCell id="78oOAkl6ML1StjrEmniX-67" value="" style="ellipse;whiteSpace=wrap;html=1;aspect=fixed;fillColor=#000000;fillStyle=solid;" vertex="1" parent="78oOAkl6ML1StjrEmniX-71">
          <mxGeometry x="20.700333333333333" y="6.3" width="7.961666666666667" height="7.961666666666667" as="geometry" />
        </mxCell>
        <mxCell id="78oOAkl6ML1StjrEmniX-68" value="" style="ellipse;whiteSpace=wrap;html=1;aspect=fixed;fillColor=#000000;fillStyle=solid;" vertex="1" parent="78oOAkl6ML1StjrEmniX-71">
          <mxGeometry x="20.700333333333333" y="78.3" width="7.961666666666667" height="7.961666666666667" as="geometry" />
        </mxCell>
        <mxCell id="78oOAkl6ML1StjrEmniX-73" value="" style="endArrow=classic;html=1;rounded=0;" edge="1" parent="1">
          <mxGeometry width="50" height="50" relative="1" as="geometry">
            <mxPoint x="1180" y="710" as="sourcePoint" />
            <mxPoint x="1210" y="710" as="targetPoint" />
          </mxGeometry>
        </mxCell>
        <mxCell id="78oOAkl6ML1StjrEmniX-74" value="" style="endArrow=classic;html=1;rounded=0;entryX=0.5;entryY=1;entryDx=0;entryDy=0;" edge="1" parent="1" target="78oOAkl6ML1StjrEmniX-26">
          <mxGeometry width="50" height="50" relative="1" as="geometry">
            <mxPoint x="1180" y="830" as="sourcePoint" />
            <mxPoint x="1230" y="780" as="targetPoint" />
            <Array as="points">
              <mxPoint x="1355" y="830" />
            </Array>
          </mxGeometry>
        </mxCell>
        <mxCell id="78oOAkl6ML1StjrEmniX-75" value="" style="endArrow=none;html=1;rounded=0;strokeWidth=3;" edge="1" parent="1">
          <mxGeometry width="50" height="50" relative="1" as="geometry">
            <mxPoint x="1239" y="774" as="sourcePoint" />
            <mxPoint x="1239" y="744" as="targetPoint" />
          </mxGeometry>
        </mxCell>
        <mxCell id="78oOAkl6ML1StjrEmniX-76" value="" style="endArrow=none;html=1;rounded=0;strokeWidth=3;" edge="1" parent="1">
          <mxGeometry width="50" height="50" relative="1" as="geometry">
            <mxPoint x="1229" y="774" as="sourcePoint" />
            <mxPoint x="1249" y="774" as="targetPoint" />
          </mxGeometry>
        </mxCell>
        <mxCell id="78oOAkl6ML1StjrEmniX-77" value="" style="endArrow=classic;html=1;rounded=0;entryX=1.017;entryY=0.414;entryDx=0;entryDy=0;entryPerimeter=0;" edge="1" parent="1" target="78oOAkl6ML1StjrEmniX-10">
          <mxGeometry width="50" height="50" relative="1" as="geometry">
            <mxPoint x="1220" y="530" as="sourcePoint" />
            <mxPoint x="1270" y="490" as="targetPoint" />
            <Array as="points">
              <mxPoint x="1030" y="530" />
              <mxPoint x="1030" y="585" />
            </Array>
          </mxGeometry>
        </mxCell>
        <mxCell id="78oOAkl6ML1StjrEmniX-78" value="" style="endArrow=classic;html=1;rounded=0;entryX=0.75;entryY=0;entryDx=0;entryDy=0;" edge="1" parent="1" target="78oOAkl6ML1StjrEmniX-28">
          <mxGeometry width="50" height="50" relative="1" as="geometry">
            <mxPoint x="1200" y="530" as="sourcePoint" />
            <mxPoint x="1250" y="480" as="targetPoint" />
            <Array as="points">
              <mxPoint x="1200" y="640" />
              <mxPoint x="1180" y="640" />
              <mxPoint x="1150" y="640" />
            </Array>
          </mxGeometry>
        </mxCell>
        <mxCell id="78oOAkl6ML1StjrEmniX-79" value="" style="endArrow=classic;html=1;rounded=0;entryX=0.5;entryY=0;entryDx=0;entryDy=0;" edge="1" parent="1" target="78oOAkl6ML1StjrEmniX-34">
          <mxGeometry width="50" height="50" relative="1" as="geometry">
            <mxPoint x="490" y="400" as="sourcePoint" />
            <mxPoint x="540" y="350" as="targetPoint" />
          </mxGeometry>
        </mxCell>
        <mxCell id="78oOAkl6ML1StjrEmniX-80" value="" style="endArrow=classic;html=1;rounded=0;entryX=0.5;entryY=0;entryDx=0;entryDy=0;exitX=0.25;exitY=1;exitDx=0;exitDy=0;" edge="1" parent="1" source="78oOAkl6ML1StjrEmniX-32" target="78oOAkl6ML1StjrEmniX-33">
          <mxGeometry width="50" height="50" relative="1" as="geometry">
            <mxPoint x="470" y="400" as="sourcePoint" />
            <mxPoint x="520" y="350" as="targetPoint" />
            <Array as="points">
              <mxPoint x="460" y="430" />
              <mxPoint x="310" y="430" />
            </Array>
          </mxGeometry>
        </mxCell>
        <mxCell id="78oOAkl6ML1StjrEmniX-81" value="" style="endArrow=classic;html=1;rounded=0;entryX=0.5;entryY=0;entryDx=0;entryDy=0;exitX=0.75;exitY=1;exitDx=0;exitDy=0;" edge="1" parent="1" source="78oOAkl6ML1StjrEmniX-32" target="78oOAkl6ML1StjrEmniX-35">
          <mxGeometry width="50" height="50" relative="1" as="geometry">
            <mxPoint x="830" y="400" as="sourcePoint" />
            <mxPoint x="670" y="460" as="targetPoint" />
            <Array as="points">
              <mxPoint x="520" y="430" />
              <mxPoint x="670" y="430" />
            </Array>
          </mxGeometry>
        </mxCell>
        <mxCell id="78oOAkl6ML1StjrEmniX-82" value="" style="endArrow=none;dashed=1;html=1;rounded=0;" edge="1" parent="1">
          <mxGeometry width="50" height="50" relative="1" as="geometry">
            <mxPoint x="130" y="880" as="sourcePoint" />
            <mxPoint x="130" y="540" as="targetPoint" />
          </mxGeometry>
        </mxCell>
        <mxCell id="78oOAkl6ML1StjrEmniX-83" value="" style="endArrow=none;dashed=1;html=1;rounded=0;" edge="1" parent="1">
          <mxGeometry width="50" height="50" relative="1" as="geometry">
            <mxPoint x="130" y="880" as="sourcePoint" />
            <mxPoint x="1440" y="880" as="targetPoint" />
          </mxGeometry>
        </mxCell>
        <mxCell id="78oOAkl6ML1StjrEmniX-84" value="" style="endArrow=none;dashed=1;html=1;rounded=0;" edge="1" parent="1">
          <mxGeometry width="50" height="50" relative="1" as="geometry">
            <mxPoint x="1440" y="880" as="sourcePoint" />
            <mxPoint x="1440" y="320" as="targetPoint" />
          </mxGeometry>
        </mxCell>
        <mxCell id="78oOAkl6ML1StjrEmniX-85" value="" style="endArrow=none;dashed=1;html=1;rounded=0;" edge="1" parent="1">
          <mxGeometry width="50" height="50" relative="1" as="geometry">
            <mxPoint x="130" y="540" as="sourcePoint" />
            <mxPoint x="910" y="540" as="targetPoint" />
          </mxGeometry>
        </mxCell>
        <mxCell id="78oOAkl6ML1StjrEmniX-86" value="" style="endArrow=none;dashed=1;html=1;rounded=0;" edge="1" parent="1">
          <mxGeometry width="50" height="50" relative="1" as="geometry">
            <mxPoint x="910" y="540" as="sourcePoint" />
            <mxPoint x="910" y="320" as="targetPoint" />
          </mxGeometry>
        </mxCell>
        <mxCell id="78oOAkl6ML1StjrEmniX-88" value="" style="endArrow=none;dashed=1;html=1;dashPattern=1 3;strokeWidth=2;rounded=0;" edge="1" parent="1">
          <mxGeometry width="50" height="50" relative="1" as="geometry">
            <mxPoint x="130" y="540" as="sourcePoint" />
            <mxPoint x="130" y="320" as="targetPoint" />
          </mxGeometry>
        </mxCell>
        <mxCell id="78oOAkl6ML1StjrEmniX-89" value="" style="endArrow=none;dashed=1;html=1;dashPattern=1 3;strokeWidth=2;rounded=0;" edge="1" parent="1">
          <mxGeometry width="50" height="50" relative="1" as="geometry">
            <mxPoint x="130" y="320" as="sourcePoint" />
            <mxPoint x="1440" y="320" as="targetPoint" />
          </mxGeometry>
        </mxCell>
      </root>
    </mxGraphModel>
  </diagram>
</mxfile>
